<?xml version="1.0" encoding="utf-8" ?>
<svg baseProfile="full" height="80px" version="1.1" width="80px" xmlns="http://www.w3.org/2000/svg" xmlns:ev="http://www.w3.org/2001/xml-events" xmlns:xlink="http://www.w3.org/1999/xlink"><defs><clipPath id="border_clip"><rect height="80" width="80" x="0" y="0" /></clipPath></defs><polygon clip-path="url(#border_clip)" fill="#ffffff" fill-rule="evenodd" points="0.5,0.5 80.5,0.5 80.5,80.5 0.5000000000000071,80.5 0.4999999999999929,0.5000000000000071" stroke-width="0" /><polygon clip-path="url(#border_clip)" fill="#0000ff" fill-rule="evenodd" points="40.5,40.5 60.5,40.5 60.5,70.5 40.5,70.5 40.5,40.5" stroke-width="0" /><polygon clip-path="url(#border_clip)" fill="#ffff00" fill-rule="evenodd" points="40.5,40.5 43.5,40.5 43.5,43.5 40.5,43.5 40.5,40.5" stroke-width="0" /><polygon clip-path="url(#border_clip)" fill="#ffff00" fill-rule="evenodd" points="40.5,45.5 43.5,45.5 43.5,48.5 40.5,48.5 40.5,45.5" stroke-width="0" /><polygon clip-path="url(#border_clip)" fill="#ffff00" fill-rule="evenodd" points="40.5,50.5 43.5,50.5 43.5,53.5 40.5,53.5 40.5,50.5" stroke-width="0" /><polygon clip-path="url(#border_clip)" fill="#ffff00" fill-rule="evenodd" points="40.5,55.5 43.5,55.5 43.5,58.5 40.5,58.5 40.5,55.5" stroke-width="0" /><polygon clip-path="url(#border_clip)" fill="#ffff00" fill-rule="evenodd" points="40.5,60.5 43.5,60.5 43.5,63.5 40.5,63.5 40.5,60.5" stroke-width="0" /><polyline clip-path="url(#border_clip)" fill="none" points="0.5,0.5 80.5,0.5 80.5,80.5 0.5000000000000071,80.5 0.4999999999999929,0.5000000000000071" stroke="#ffffff" stroke-linecap="round" stroke-width="1" /><polyline clip-path="url(#border_clip)" fill="none" points="80.5,0.5 80.5,0.5" stroke="#ff0000" stroke-linecap="round" stroke-width="60" /><polyline clip-path="url(#border_clip)" fill="none" points="40.5,40.5 60.5,40.5 60.5,70.5 40.5,70.5 40.5,40.5" stroke="#0000ff" stroke-linecap="round" stroke-width="1" /><polyline clip-path="url(#border_clip)" fill="none" points="40.5,40.5 43.5,40.5 43.5,43.5 40.5,43.5 40.5,40.5" stroke="#ffff00" stroke-linecap="round" stroke-width="1" /><polyline clip-path="url(#border_clip)" fill="none" points="40.5,45.5 43.5,45.5 43.5,48.5 40.5,48.5 40.5,45.5" stroke="#ffff00" stroke-linecap="round" stroke-width="1" /><polyline clip-path="url(#border_clip)" fill="none" points="40.5,50.5 43.5,50.5 43.5,53.5 40.5,53.5 40.5,50.5" stroke="#ffff00" stroke-linecap="round" stroke-width="1" /><polyline clip-path="url(#border_clip)" fill="none" points="40.5,55.5 43.5,55.5 43.5,58.5 40.5,58.5 40.5,55.5" stroke="#ffff00" stroke-linecap="round" stroke-width="1" /><polyline clip-path="url(#border_clip)" fill="none" points="40.5,60.5 43.5,60.5 43.5,63.5 40.5,63.5 40.5,60.5" stroke="#ffff00" stroke-linecap="round" stroke-width="1" /></svg>