<?xml version="1.0" encoding="utf-8" ?>
<svg baseProfile="full" height="80px" version="1.1" width="80px" xmlns="http://www.w3.org/2000/svg" xmlns:ev="http://www.w3.org/2001/xml-events" xmlns:xlink="http://www.w3.org/1999/xlink"><defs><clipPath id="border_clip"><rect height="80" width="80" x="0" y="0" /></clipPath></defs><polygon clip-path="url(#border_clip)" fill="black" fill-rule="evenodd" points="0.5,0.5 80.5,0.5 80.5,80.5 0.5000000000000071,80.5 0.4999999999999929,0.5000000000000071" stroke-width="0" /><polygon clip-path="url(#border_clip)" fill="black" fill-rule="evenodd" points="60.14790577438215,20.153997968126504 70.14638272594607,19.979473903753668 70.3209067903189,29.97795085531758 60.322429838754985,30.152474919690416 60.14790577438215,20.153997968126504" stroke-width="0" /><polygon clip-path="url(#border_clip)" fill="black" fill-rule="evenodd" points="40.00637140240693,12.22003658404703 46.952955106996896,5.026638580660517 54.14635311038341,11.97322228525049 47.19976940579343,19.166620288637 40.00637140240693,12.220036584047026" stroke-width="0" /><polygon clip-path="url(#border_clip)" fill="black" fill-rule="evenodd" points="20.1539979681265,20.852094225617847 19.979473903753664,10.853617274053935 29.977950855317577,10.679093209681099 30.152474919690412,20.67757016124501 20.1539979681265,20.852094225617847" stroke-width="0" /><polygon clip-path="url(#border_clip)" fill="black" fill-rule="evenodd" points="12.22003658404703,40.99362859759308 5.026638580660517,34.04704489300311 11.97322228525049,26.8536468896166 19.166620288637002,33.80023059420657 12.22003658404703,40.99362859759308" stroke-width="0" /><polygon clip-path="url(#border_clip)" fill="black" fill-rule="evenodd" points="20.852094225617847,60.846002031873496 10.853617274053935,61.02052609624633 10.679093209681099,51.02204914468242 20.67757016124501,50.84752508030958 20.852094225617847,60.846002031873496" stroke-width="0" /><polygon clip-path="url(#border_clip)" fill="black" fill-rule="evenodd" points="40.993628597593066,68.77996341595298 34.0470448930031,75.97336141933948 26.85364688961658,69.02677771474951 33.80023059420655,61.833379711363 40.993628597593066,68.77996341595298" stroke-width="0" /><polygon clip-path="url(#border_clip)" fill="black" fill-rule="evenodd" points="60.84600203187349,60.14790577438217 61.02052609624632,70.14638272594607 51.02204914468241,70.32090679031892 50.84752508030957,60.322429838755 60.84600203187348,60.14790577438217" stroke-width="0" /><polygon clip-path="url(#border_clip)" fill="black" fill-rule="evenodd" points="68.77996341595298,40.006371402406934 75.97336141933948,46.95295510699691 69.02677771474951,54.146353110383416 61.833379711362994,47.19976940579345 68.77996341595298,40.006371402406934" stroke-width="0" /><polygon clip-path="url(#border_clip)" fill="#ffffff" fill-rule="evenodd" points="61.13030106310126,19.13669786653283 69.12908262435239,18.997078615034564 69.26870187585067,26.995860176285696 61.26992031459953,27.135479427783963 61.13030106310126,19.136697866532835" stroke-width="0" /><polygon clip-path="url(#border_clip)" fill="#ffffff" fill-rule="evenodd" points="39.98168997252727,10.806038413249382 45.53895693619925,5.051320010540174 51.29367533890846,10.608586974212152 45.73640837523648,16.36330537692136 39.98168997252727,10.806038413249382" stroke-width="0" /><polygon clip-path="url(#border_clip)" fill="#ffffff" fill-rule="evenodd" points="19.136697866532828,19.869698936898743 18.99707861503456,11.870917375647615 26.99586017628569,11.731298124149347 27.13547942778396,19.730079685400476 19.136697866532828,19.869698936898747" stroke-width="0" /><polygon clip-path="url(#border_clip)" fill="#ffffff" fill-rule="evenodd" points="10.806038413249382,41.01831002747274 5.051320010540174,35.46104306380076 10.608586974212152,29.706324661091546 16.36330537692136,35.26359162476352 10.806038413249382,41.01831002747274" stroke-width="0" /><polygon clip-path="url(#border_clip)" fill="#ffffff" fill-rule="evenodd" points="19.86969893689874,61.86330213346717 11.870917375647608,62.00292138496543 11.73129812414934,54.004139823714304 19.73007968540047,53.86452057221604 19.869698936898736,61.863302133467165" stroke-width="0" /><polygon clip-path="url(#border_clip)" fill="#ffffff" fill-rule="evenodd" points="41.01831002747272,70.19396158675062 35.461043063800744,75.94867998945983 29.706324661091532,70.39141302578784 35.26359162476351,64.63669462307864 41.01831002747272,70.19396158675062" stroke-width="0" /><polygon clip-path="url(#border_clip)" fill="#ffffff" fill-rule="evenodd" points="61.86330213346716,61.13030106310127 62.00292138496543,69.1290826243524 54.0041398237143,69.26870187585067 53.86452057221603,61.26992031459954 61.86330213346716,61.13030106310127" stroke-width="0" /><polygon clip-path="url(#border_clip)" fill="#ffffff" fill-rule="evenodd" points="70.19396158675062,39.981689972527285 75.94867998945983,45.53895693619926 70.39141302578784,51.29367533890847 64.63669462307864,45.73640837523649 70.19396158675062,39.981689972527285" stroke-width="0" /><polygon clip-path="url(#border_clip)" fill="#0000ff" fill-rule="evenodd" points="55.41045339515945,35.238975427658794 57.41014878547223,35.20407061478423 57.4450535983468,37.20376600509701 55.44535820803402,37.238670817971574 55.41045339515945,35.238975427658794" stroke-width="0" /><polygon clip-path="url(#border_clip)" fill="#0000ff" fill-rule="evenodd" points="53.540738659989785,31.559131183053417 55.46326205186642,31.00785647141942 56.01453676350042,32.930379863296054 54.092013371623786,33.481654574930054 53.540738659989785,31.559131183053417" stroke-width="0" /><polygon clip-path="url(#border_clip)" fill="#0000ff" fill-rule="evenodd" points="50.78231913598141,28.488592372838625 52.496653737385635,27.458516223018517 53.52672988720575,29.172850824422742 51.81239528580152,30.20292697424285 50.78231913598141,28.488592372838625" stroke-width="0" /><polygon clip-path="url(#border_clip)" fill="#0000ff" fill-rule="evenodd" points="47.32317655519171,26.23661114262525 48.7124932961097,24.797931541947946 50.151172896787,26.18724828286594 48.761856155869005,27.62592788354324 47.32317655519171,26.23661114262525" stroke-width="0" /><polygon clip-path="url(#border_clip)" fill="#0000ff" fill-rule="evenodd" points="43.399045767998075,24.956656291677376 44.36866500849075,23.207416877398586 46.11790442276954,24.17703611789126 45.148285182276865,25.926275532170052 43.399045767998075,24.956656291677376" stroke-width="0" /><polygon clip-path="url(#border_clip)" fill="#0000ff" fill-rule="evenodd" points="39.277349802615035,24.735954627861716 39.76119359381437,22.795363175309724 41.70178504636636,23.27920696650906 41.21794125516703,25.219798419061057 39.277349802615035,24.73595462786172" stroke-width="0" /><polygon clip-path="url(#border_clip)" fill="#0000ff" fill-rule="evenodd" points="35.238975427658794,25.58954660484055 35.20407061478423,23.589851214527766 37.20376600509701,23.554946401653197 37.238670817971574,25.554641791965977 35.238975427658794,25.589546604840546" stroke-width="0" /><polygon clip-path="url(#border_clip)" fill="#0000ff" fill-rule="evenodd" points="31.55913118305342,27.45926134001021 31.007856471419423,25.536737948133574 32.93037986329606,24.985463236499577 33.48165457493006,26.907986628376214 31.55913118305342,27.459261340010215" stroke-width="0" /><polygon clip-path="url(#border_clip)" fill="#0000ff" fill-rule="evenodd" points="28.48859237283862,30.21768086401859 27.458516223018513,28.503346262614365 29.17285082442274,27.473270112794257 30.202926974242846,29.187604714198482 28.48859237283862,30.21768086401859" stroke-width="0" /><polygon clip-path="url(#border_clip)" fill="#0000ff" fill-rule="evenodd" points="26.236611142625247,33.6768234448083 24.797931541947946,32.2875067038903 26.187248282865937,30.848827103213 27.62592788354324,32.238143844130995 26.236611142625247,33.6768234448083" stroke-width="0" /><polygon clip-path="url(#border_clip)" fill="#0000ff" fill-rule="evenodd" points="24.956656291677376,37.600954232001925 23.207416877398586,36.631334991509256 24.17703611789126,34.88209557723046 25.926275532170052,35.851714817723135 24.956656291677376,37.600954232001925" stroke-width="0" /><polygon clip-path="url(#border_clip)" fill="#0000ff" fill-rule="evenodd" points="24.735954627861716,41.72265019738497 22.795363175309724,41.23880640618564 23.279206966509058,39.29821495363365 25.21979841906105,39.78205874483298 24.735954627861716,41.72265019738497" stroke-width="0" /><polygon clip-path="url(#border_clip)" fill="#0000ff" fill-rule="evenodd" points="25.58954660484055,45.761024572341206 23.589851214527766,45.79592938521578 23.554946401653197,43.79623399490299 25.554641791965977,43.761329182028426 25.589546604840546,45.761024572341206" stroke-width="0" /><polygon clip-path="url(#border_clip)" fill="#0000ff" fill-rule="evenodd" points="27.459261340010215,49.44086881694658 25.536737948133577,49.992143528580584 24.985463236499577,48.069620136703946 26.907986628376214,47.518345425069946 27.459261340010215,49.44086881694658" stroke-width="0" /><polygon clip-path="url(#border_clip)" fill="#0000ff" fill-rule="evenodd" points="30.217680864018586,52.511407627161375 28.50334626261436,53.54148377698148 27.473270112794253,51.82714917557726 29.18760471419848,50.79707302575715 30.217680864018586,52.511407627161375" stroke-width="0" /><polygon clip-path="url(#border_clip)" fill="#0000ff" fill-rule="evenodd" points="33.676823444808306,54.76338885737476 32.28750670389031,56.202068458052054 30.848827103213004,54.81275171713406 32.238143844131,53.37407211645676 33.676823444808306,54.76338885737476" stroke-width="0" /><polygon clip-path="url(#border_clip)" fill="#0000ff" fill-rule="evenodd" points="37.600954232001925,56.043343708322624 36.63133499150925,57.792583122601414 34.88209557723046,56.82296388210874 35.851714817723135,55.07372446782995 37.600954232001925,56.043343708322624" stroke-width="0" /><polygon clip-path="url(#border_clip)" fill="#0000ff" fill-rule="evenodd" points="41.722650197384965,56.264045372138284 41.23880640618563,58.204636824690276 39.29821495363363,57.72079303349094 39.78205874483297,55.78020158093895 41.722650197384965,56.264045372138284" stroke-width="0" /><polygon clip-path="url(#border_clip)" fill="#0000ff" fill-rule="evenodd" points="45.76102457234121,55.41045339515945 45.795929385215786,57.41014878547223 43.796233994903,57.4450535983468 43.76132918202843,55.445358208034015 45.76102457234121,55.41045339515945" stroke-width="0" /><polygon clip-path="url(#border_clip)" fill="#0000ff" fill-rule="evenodd" points="49.44086881694658,53.540738659989785 49.992143528580584,55.46326205186642 48.069620136703946,56.01453676350042 47.518345425069946,54.092013371623786 49.44086881694658,53.540738659989785" stroke-width="0" /><polygon clip-path="url(#border_clip)" fill="#0000ff" fill-rule="evenodd" points="52.511407627161375,50.78231913598142 53.54148377698148,52.49665373738564 51.82714917557726,53.52672988720575 50.79707302575715,51.81239528580153 52.511407627161375,50.78231913598142" stroke-width="0" /><polygon clip-path="url(#border_clip)" fill="#0000ff" fill-rule="evenodd" points="54.76338885737476,47.3231765551917 56.202068458052054,48.71249329610969 54.81275171713406,50.151172896786996 53.37407211645676,48.761856155869 54.76338885737476,47.323176555191694" stroke-width="0" /><polygon clip-path="url(#border_clip)" fill="#0000ff" fill-rule="evenodd" points="56.043343708322624,43.399045767998075 57.792583122601414,44.36866500849075 56.82296388210874,46.11790442276954 55.07372446782995,45.148285182276865 56.043343708322624,43.399045767998075" stroke-width="0" /><polygon clip-path="url(#border_clip)" fill="#0000ff" fill-rule="evenodd" points="56.264045372138284,39.277349802615035 58.204636824690276,39.76119359381437 57.72079303349094,41.70178504636637 55.78020158093895,41.21794125516703 56.264045372138284,39.277349802615035" stroke-width="0" /><polygon clip-path="url(#border_clip)" fill="#ff0000" fill-rule="evenodd" points="50.4112149193775,35.32623745984521 52.41091030969028,35.291332646970645 52.445815122564845,37.291028037283425 50.446119732252065,37.32593285015799 50.4112149193775,35.32623745984521" stroke-width="0" /><polygon clip-path="url(#border_clip)" fill="#ff0000" fill-rule="evenodd" points="47.449986561663,31.742278447409756 49.2626021357363,30.897041923928356 50.107838659217705,32.70965749800166 48.2952230851444,33.55489402148306 47.449986561663,31.74227844740976" stroke-width="0" /><polygon clip-path="url(#border_clip)" fill="#ff0000" fill-rule="evenodd" points="43.287042388791214,29.672609052819745 44.599160446772224,28.1631898923742 46.10857960721777,29.475307950355212 44.79646154923675,30.984727110800755 43.287042388791214,29.67260905281974" stroke-width="0" /><polygon clip-path="url(#border_clip)" fill="#ff0000" fill-rule="evenodd" points="38.64219326741219,29.47509391675596 39.22693667685766,27.56248440482989 41.13954618878373,28.14722781427536 40.55480277933826,30.059837326201432 38.64219326741219,29.47509391675596" stroke-width="0" /><polygon clip-path="url(#border_clip)" fill="#ff0000" fill-rule="evenodd" points="34.318575807741915,31.183885200612515 34.07483712093162,29.19879289732987 36.05992942421427,28.955054210519577 36.303668111024564,30.94014651380222 34.318575807741915,31.183885200612515" stroke-width="0" /><polygon clip-path="url(#border_clip)" fill="#ff0000" fill-rule="evenodd" points="31.0637827473889,34.50351736752914 30.033706597568788,32.78918276612492 31.748041198973013,31.75910661630481 32.778117348793124,33.47344121770904 31.0637827473889,34.50351736752914" stroke-width="0" /><polygon clip-path="url(#border_clip)" fill="#ff0000" fill-rule="evenodd" points="29.44059737535485,38.85999585793449 27.802293286776866,37.7128429852324 28.94944615947896,36.07453889665442 30.587750248056942,37.22169176935651 29.44059737535485,38.85999585793449" stroke-width="0" /><polygon clip-path="url(#border_clip)" fill="#ff0000" fill-rule="evenodd" points="29.729683188640635,43.50004596347287 27.766428821745308,43.11842797271978 28.1480468124984,41.15517360582445 30.111301179393728,41.536791596577544 29.729683188640635,43.50004596347287" stroke-width="0" /><polygon clip-path="url(#border_clip)" fill="#ff0000" fill-rule="evenodd" points="31.88105462386697,47.62136086736482 29.9323144942965,48.07126297605255 29.482412385608768,46.122522846482084 31.431152515179242,45.672620737794354 31.881054623866973,47.62136086736482" stroke-width="0" /><polygon clip-path="url(#border_clip)" fill="#ff0000" fill-rule="evenodd" points="35.52272001528731,50.51132778175695 33.925448995192724,51.714957828061046 32.721818948888625,50.11768680796646 34.319089968983214,48.91405676166236 35.52272001528731,50.51132778175695" stroke-width="0" /><polygon clip-path="url(#border_clip)" fill="#ff0000" fill-rule="evenodd" points="40.0250023332336,51.67024517262564 39.055383092740925,53.41948458690443 37.306143678462135,52.44986534641176 38.27576291895481,50.700625932132965 40.0250023332336,51.67024517262564" stroke-width="0" /><polygon clip-path="url(#border_clip)" fill="#ff0000" fill-rule="evenodd" points="44.60941606298215,50.89772569465575 44.435104577486825,52.89011509083924 42.442715181303335,52.71580360534392 42.61702666679865,50.72341420916043 44.60941606298215,50.89772569465575" stroke-width="0" /><polygon clip-path="url(#border_clip)" fill="#ff0000" fill-rule="evenodd" points="48.483274422568144,48.32734498370739 49.13441073148246,50.21838213490602 47.24337358028383,50.86951844382033 46.59223727136951,48.9784812926217 48.483274422568144,48.32734498370739" stroke-width="0" /><polygon clip-path="url(#border_clip)" fill="#ff0000" fill-rule="evenodd" points="50.97675210872083,44.40354521587922 52.34074882884583,45.86625261911756 50.87804142560749,47.230249339242555 49.51404470548249,45.767541936004214 50.97675210872083,44.40354521587922" stroke-width="0" /><polygon clip-path="url(#border_clip)" fill="#ff0000" fill-rule="evenodd" points="51.65870417697077,39.80478701763054 53.49971388387566,40.58624927460909 52.71825162689711,42.427258981513965 50.87724191999222,41.645796724535415 51.65870417697077,39.80478701763054" stroke-width="0" /><polygon clip-path="url(#border_clip)" fill="black" fill-rule="evenodd" points="44.412128748439144,35.43095189846891 46.41182413875193,35.39604708559434 46.4467289516265,37.39574247590713 44.44703356131372,37.43064728878169 44.412128748439144,35.43095189846891" stroke-width="0" /><polygon clip-path="url(#border_clip)" fill="black" fill-rule="evenodd" points="39.68193448014273,34.14934894635041 41.07125122106073,32.71066934567311 42.50993082173803,34.0999860865911 41.12061408082003,35.538665687268406 39.68193448014273,34.14934894635041" stroke-width="0" /><polygon clip-path="url(#border_clip)" fill="black" fill-rule="evenodd" points="35.43095189846891,36.587871251560856 35.39604708559434,34.58817586124807 37.39574247590713,34.5532710483735 37.43064728878169,36.55296643868628 35.43095189846891,36.587871251560856" stroke-width="0" /><polygon clip-path="url(#border_clip)" fill="black" fill-rule="evenodd" points="34.14934894635041,41.318065519857264 32.71066934567311,39.92874877893927 34.0999860865911,38.49006917826197 35.538665687268406,39.87938591917996 34.14934894635041,41.318065519857264" stroke-width="0" /><polygon clip-path="url(#border_clip)" fill="black" fill-rule="evenodd" points="36.587871251560856,45.56904810153109 34.58817586124807,45.60395291440565 34.5532710483735,43.60425752409287 36.55296643868628,43.56935271121831 36.587871251560856,45.56904810153109" stroke-width="0" /><polygon clip-path="url(#border_clip)" fill="black" fill-rule="evenodd" points="41.318065519857264,46.85065105364959 39.92874877893927,48.289330654326896 38.49006917826197,46.9000139134089 39.87938591917996,45.461334312731594 41.318065519857264,46.85065105364959" stroke-width="0" /><polygon clip-path="url(#border_clip)" fill="black" fill-rule="evenodd" points="45.56904810153109,44.412128748439144 45.60395291440565,46.41182413875193 43.60425752409287,46.4467289516265 43.56935271121831,44.44703356131372 45.56904810153109,44.412128748439144" stroke-width="0" /><polygon clip-path="url(#border_clip)" fill="black" fill-rule="evenodd" points="46.85065105364959,39.681934480142736 48.28933065432689,41.07125122106073 46.9000139134089,42.50993082173803 45.461334312731594,41.12061408082004 46.85065105364959,39.681934480142736" stroke-width="0" /><polyline clip-path="url(#border_clip)" fill="none" points="0.5,0.5 80.5,0.5 80.5,80.5 0.5000000000000071,80.5 0.4999999999999929,0.5000000000000071" stroke="black" stroke-linecap="round" stroke-width="1" /><polyline clip-path="url(#border_clip)" fill="none" points="40.5,40.5 40.5,40.5" stroke="#ffffff" stroke-linecap="round" stroke-width="40" /><polyline clip-path="url(#border_clip)" fill="none" points="67.5,40.5 67.5,40.5" stroke="#0000ff" stroke-linecap="round" stroke-width="10" /><polyline clip-path="url(#border_clip)" fill="none" points="66.57999730980484,33.51188578223194 66.57999730980484,33.51188578223194" stroke="#0000ff" stroke-linecap="round" stroke-width="10" /><polyline clip-path="url(#border_clip)" fill="none" points="63.882685902179844,27.0 63.882685902179844,27.0" stroke="#0000ff" stroke-linecap="round" stroke-width="10" /><polyline clip-path="url(#border_clip)" fill="none" points="59.59188309203678,21.408116907963215 59.59188309203678,21.408116907963215" stroke="#0000ff" stroke-linecap="round" stroke-width="10" /><polyline clip-path="url(#border_clip)" fill="none" points="54.0,17.11731409782016 54.0,17.11731409782016" stroke="#0000ff" stroke-linecap="round" stroke-width="10" /><polyline clip-path="url(#border_clip)" fill="none" points="47.48811421776806,14.420002690195155 47.48811421776806,14.420002690195155" stroke="#0000ff" stroke-linecap="round" stroke-width="10" /><polyline clip-path="url(#border_clip)" fill="none" points="40.5,13.5 40.5,13.5" stroke="#0000ff" stroke-linecap="round" stroke-width="10" /><polyline clip-path="url(#border_clip)" fill="none" points="33.511885782231936,14.420002690195155 33.511885782231936,14.420002690195155" stroke="#0000ff" stroke-linecap="round" stroke-width="10" /><polyline clip-path="url(#border_clip)" fill="none" points="27.000000000000007,17.117314097820156 27.000000000000007,17.117314097820156" stroke="#0000ff" stroke-linecap="round" stroke-width="10" /><polyline clip-path="url(#border_clip)" fill="none" points="21.40811690796322,21.408116907963215 21.40811690796322,21.408116907963215" stroke="#0000ff" stroke-linecap="round" stroke-width="10" /><polyline clip-path="url(#border_clip)" fill="none" points="17.117314097820156,27.0 17.117314097820156,27.0" stroke="#0000ff" stroke-linecap="round" stroke-width="10" /><polyline clip-path="url(#border_clip)" fill="none" points="14.420002690195158,33.511885782231936 14.420002690195158,33.511885782231936" stroke="#0000ff" stroke-linecap="round" stroke-width="10" /><polyline clip-path="url(#border_clip)" fill="none" points="13.5,40.5 13.5,40.5" stroke="#0000ff" stroke-linecap="round" stroke-width="10" /><polyline clip-path="url(#border_clip)" fill="none" points="14.420002690195155,47.488114217768064 14.420002690195155,47.488114217768064" stroke="#0000ff" stroke-linecap="round" stroke-width="10" /><polyline clip-path="url(#border_clip)" fill="none" points="17.11731409782016,54.0 17.11731409782016,54.0" stroke="#0000ff" stroke-linecap="round" stroke-width="10" /><polyline clip-path="url(#border_clip)" fill="none" points="21.408116907963212,59.59188309203678 21.408116907963212,59.59188309203678" stroke="#0000ff" stroke-linecap="round" stroke-width="10" /><polyline clip-path="url(#border_clip)" fill="none" points="26.999999999999986,63.882685902179844 26.999999999999986,63.882685902179844" stroke="#0000ff" stroke-linecap="round" stroke-width="10" /><polyline clip-path="url(#border_clip)" fill="none" points="33.51188578223194,66.57999730980484 33.51188578223194,66.57999730980484" stroke="#0000ff" stroke-linecap="round" stroke-width="10" /><polyline clip-path="url(#border_clip)" fill="none" points="40.49999999999999,67.5 40.49999999999999,67.5" stroke="#0000ff" stroke-linecap="round" stroke-width="10" /><polyline clip-path="url(#border_clip)" fill="none" points="47.48811421776805,66.57999730980485 47.48811421776805,66.57999730980485" stroke="#0000ff" stroke-linecap="round" stroke-width="10" /><polyline clip-path="url(#border_clip)" fill="none" points="54.0,63.882685902179844 54.0,63.882685902179844" stroke="#0000ff" stroke-linecap="round" stroke-width="10" /><polyline clip-path="url(#border_clip)" fill="none" points="59.59188309203678,59.59188309203679 59.59188309203678,59.59188309203679" stroke="#0000ff" stroke-linecap="round" stroke-width="10" /><polyline clip-path="url(#border_clip)" fill="none" points="63.88268590217984,54.000000000000014 63.88268590217984,54.000000000000014" stroke="#0000ff" stroke-linecap="round" stroke-width="10" /><polyline clip-path="url(#border_clip)" fill="none" points="66.57999730980484,47.48811421776806 66.57999730980484,47.48811421776806" stroke="#0000ff" stroke-linecap="round" stroke-width="10" /><polyline clip-path="url(#border_clip)" fill="none" points="53.46815873507884,3.8963545664943595 65.71560744899473,10.967422378359835" stroke="#ff0000" stroke-linecap="round" stroke-width="2" /><polyline clip-path="url(#border_clip)" fill="none" points="33.428932188134524,2.316233815926431 47.571067811865476,2.316233815926431" stroke="#ff0000" stroke-linecap="round" stroke-width="2" /><polyline clip-path="url(#border_clip)" fill="none" points="15.284392551005283,10.967422378359824 27.53184126492117,3.8963545664943524" stroke="#ff0000" stroke-linecap="round" stroke-width="2" /><polyline clip-path="url(#border_clip)" fill="none" points="3.8963545664943595,27.53184126492116 10.967422378359831,15.28439255100528" stroke="#ff0000" stroke-linecap="round" stroke-width="2" /><polyline clip-path="url(#border_clip)" fill="none" points="2.316233815926431,47.57106781186547 2.316233815926431,33.428932188134524" stroke="#ff0000" stroke-linecap="round" stroke-width="2" /><polyline clip-path="url(#border_clip)" fill="none" points="10.96742237835982,65.71560744899472 3.8963545664943595,53.468158735078845" stroke="#ff0000" stroke-linecap="round" stroke-width="2" /><polyline clip-path="url(#border_clip)" fill="none" points="27.531841264921155,77.10364543350565 15.284392551005272,70.03257762164017" stroke="#ff0000" stroke-linecap="round" stroke-width="2" /><polyline clip-path="url(#border_clip)" fill="none" points="47.57106781186545,78.68376618407356 33.42893218813454,78.68376618407356" stroke="#ff0000" stroke-linecap="round" stroke-width="2" /><polyline clip-path="url(#border_clip)" fill="none" points="65.71560744899472,70.03257762164017 53.46815873507883,77.10364543350565" stroke="#ff0000" stroke-linecap="round" stroke-width="2" /><polyline clip-path="url(#border_clip)" fill="none" points="77.10364543350565,53.468158735078845 70.03257762164017,65.71560744899473" stroke="#ff0000" stroke-linecap="round" stroke-width="2" /><polyline clip-path="url(#border_clip)" fill="none" points="78.68376618407356,33.428932188134524 78.68376618407356,47.57106781186546" stroke="#ff0000" stroke-linecap="round" stroke-width="2" /><polyline clip-path="url(#border_clip)" fill="none" points="70.03257762164017,15.284392551005286 77.10364543350565,27.53184126492117" stroke="#ff0000" stroke-linecap="round" stroke-width="2" /><polyline clip-path="url(#border_clip)" fill="none" points="60.14790577438215,20.153997968126504 70.14638272594607,19.979473903753668 70.3209067903189,29.97795085531758 60.322429838754985,30.152474919690416 60.14790577438215,20.153997968126504" stroke="black" stroke-linecap="round" stroke-width="1" /><polyline clip-path="url(#border_clip)" fill="none" points="40.00637140240693,12.22003658404703 46.952955106996896,5.026638580660517 54.14635311038341,11.97322228525049 47.19976940579343,19.166620288637 40.00637140240693,12.220036584047026" stroke="black" stroke-linecap="round" stroke-width="1" /><polyline clip-path="url(#border_clip)" fill="none" points="20.1539979681265,20.852094225617847 19.979473903753664,10.853617274053935 29.977950855317577,10.679093209681099 30.152474919690412,20.67757016124501 20.1539979681265,20.852094225617847" stroke="black" stroke-linecap="round" stroke-width="1" /><polyline clip-path="url(#border_clip)" fill="none" points="12.22003658404703,40.99362859759308 5.026638580660517,34.04704489300311 11.97322228525049,26.8536468896166 19.166620288637002,33.80023059420657 12.22003658404703,40.99362859759308" stroke="black" stroke-linecap="round" stroke-width="1" /><polyline clip-path="url(#border_clip)" fill="none" points="20.852094225617847,60.846002031873496 10.853617274053935,61.02052609624633 10.679093209681099,51.02204914468242 20.67757016124501,50.84752508030958 20.852094225617847,60.846002031873496" stroke="black" stroke-linecap="round" stroke-width="1" /><polyline clip-path="url(#border_clip)" fill="none" points="40.993628597593066,68.77996341595298 34.0470448930031,75.97336141933948 26.85364688961658,69.02677771474951 33.80023059420655,61.833379711363 40.993628597593066,68.77996341595298" stroke="black" stroke-linecap="round" stroke-width="1" /><polyline clip-path="url(#border_clip)" fill="none" points="60.84600203187349,60.14790577438217 61.02052609624632,70.14638272594607 51.02204914468241,70.32090679031892 50.84752508030957,60.322429838755 60.84600203187348,60.14790577438217" stroke="black" stroke-linecap="round" stroke-width="1" /><polyline clip-path="url(#border_clip)" fill="none" points="68.77996341595298,40.006371402406934 75.97336141933948,46.95295510699691 69.02677771474951,54.146353110383416 61.833379711362994,47.19976940579345 68.77996341595298,40.006371402406934" stroke="black" stroke-linecap="round" stroke-width="1" /><polyline clip-path="url(#border_clip)" fill="none" points="61.13030106310126,19.13669786653283 69.12908262435239,18.997078615034564 69.26870187585067,26.995860176285696 61.26992031459953,27.135479427783963 61.13030106310126,19.136697866532835" stroke="#ffffff" stroke-linecap="round" stroke-width="1" /><polyline clip-path="url(#border_clip)" fill="none" points="39.98168997252727,10.806038413249382 45.53895693619925,5.051320010540174 51.29367533890846,10.608586974212152 45.73640837523648,16.36330537692136 39.98168997252727,10.806038413249382" stroke="#ffffff" stroke-linecap="round" stroke-width="1" /><polyline clip-path="url(#border_clip)" fill="none" points="19.136697866532828,19.869698936898743 18.99707861503456,11.870917375647615 26.99586017628569,11.731298124149347 27.13547942778396,19.730079685400476 19.136697866532828,19.869698936898747" stroke="#ffffff" stroke-linecap="round" stroke-width="1" /><polyline clip-path="url(#border_clip)" fill="none" points="10.806038413249382,41.01831002747274 5.051320010540174,35.46104306380076 10.608586974212152,29.706324661091546 16.36330537692136,35.26359162476352 10.806038413249382,41.01831002747274" stroke="#ffffff" stroke-linecap="round" stroke-width="1" /><polyline clip-path="url(#border_clip)" fill="none" points="19.86969893689874,61.86330213346717 11.870917375647608,62.00292138496543 11.73129812414934,54.004139823714304 19.73007968540047,53.86452057221604 19.869698936898736,61.863302133467165" stroke="#ffffff" stroke-linecap="round" stroke-width="1" /><polyline clip-path="url(#border_clip)" fill="none" points="41.01831002747272,70.19396158675062 35.461043063800744,75.94867998945983 29.706324661091532,70.39141302578784 35.26359162476351,64.63669462307864 41.01831002747272,70.19396158675062" stroke="#ffffff" stroke-linecap="round" stroke-width="1" /><polyline clip-path="url(#border_clip)" fill="none" points="61.86330213346716,61.13030106310127 62.00292138496543,69.1290826243524 54.0041398237143,69.26870187585067 53.86452057221603,61.26992031459954 61.86330213346716,61.13030106310127" stroke="#ffffff" stroke-linecap="round" stroke-width="1" /><polyline clip-path="url(#border_clip)" fill="none" points="70.19396158675062,39.981689972527285 75.94867998945983,45.53895693619926 70.39141302578784,51.29367533890847 64.63669462307864,45.73640837523649 70.19396158675062,39.981689972527285" stroke="#ffffff" stroke-linecap="round" stroke-width="1" /><polyline clip-path="url(#border_clip)" fill="none" points="55.41045339515945,35.238975427658794 57.41014878547223,35.20407061478423 57.4450535983468,37.20376600509701 55.44535820803402,37.238670817971574 55.41045339515945,35.238975427658794" stroke="#0000ff" stroke-linecap="round" stroke-width="1" /><polyline clip-path="url(#border_clip)" fill="none" points="53.540738659989785,31.559131183053417 55.46326205186642,31.00785647141942 56.01453676350042,32.930379863296054 54.092013371623786,33.481654574930054 53.540738659989785,31.559131183053417" stroke="#0000ff" stroke-linecap="round" stroke-width="1" /><polyline clip-path="url(#border_clip)" fill="none" points="50.78231913598141,28.488592372838625 52.496653737385635,27.458516223018517 53.52672988720575,29.172850824422742 51.81239528580152,30.20292697424285 50.78231913598141,28.488592372838625" stroke="#0000ff" stroke-linecap="round" stroke-width="1" /><polyline clip-path="url(#border_clip)" fill="none" points="47.32317655519171,26.23661114262525 48.7124932961097,24.797931541947946 50.151172896787,26.18724828286594 48.761856155869005,27.62592788354324 47.32317655519171,26.23661114262525" stroke="#0000ff" stroke-linecap="round" stroke-width="1" /><polyline clip-path="url(#border_clip)" fill="none" points="43.399045767998075,24.956656291677376 44.36866500849075,23.207416877398586 46.11790442276954,24.17703611789126 45.148285182276865,25.926275532170052 43.399045767998075,24.956656291677376" stroke="#0000ff" stroke-linecap="round" stroke-width="1" /><polyline clip-path="url(#border_clip)" fill="none" points="39.277349802615035,24.735954627861716 39.76119359381437,22.795363175309724 41.70178504636636,23.27920696650906 41.21794125516703,25.219798419061057 39.277349802615035,24.73595462786172" stroke="#0000ff" stroke-linecap="round" stroke-width="1" /><polyline clip-path="url(#border_clip)" fill="none" points="35.238975427658794,25.58954660484055 35.20407061478423,23.589851214527766 37.20376600509701,23.554946401653197 37.238670817971574,25.554641791965977 35.238975427658794,25.589546604840546" stroke="#0000ff" stroke-linecap="round" stroke-width="1" /><polyline clip-path="url(#border_clip)" fill="none" points="31.55913118305342,27.45926134001021 31.007856471419423,25.536737948133574 32.93037986329606,24.985463236499577 33.48165457493006,26.907986628376214 31.55913118305342,27.459261340010215" stroke="#0000ff" stroke-linecap="round" stroke-width="1" /><polyline clip-path="url(#border_clip)" fill="none" points="28.48859237283862,30.21768086401859 27.458516223018513,28.503346262614365 29.17285082442274,27.473270112794257 30.202926974242846,29.187604714198482 28.48859237283862,30.21768086401859" stroke="#0000ff" stroke-linecap="round" stroke-width="1" /><polyline clip-path="url(#border_clip)" fill="none" points="26.236611142625247,33.6768234448083 24.797931541947946,32.2875067038903 26.187248282865937,30.848827103213 27.62592788354324,32.238143844130995 26.236611142625247,33.6768234448083" stroke="#0000ff" stroke-linecap="round" stroke-width="1" /><polyline clip-path="url(#border_clip)" fill="none" points="24.956656291677376,37.600954232001925 23.207416877398586,36.631334991509256 24.17703611789126,34.88209557723046 25.926275532170052,35.851714817723135 24.956656291677376,37.600954232001925" stroke="#0000ff" stroke-linecap="round" stroke-width="1" /><polyline clip-path="url(#border_clip)" fill="none" points="24.735954627861716,41.72265019738497 22.795363175309724,41.23880640618564 23.279206966509058,39.29821495363365 25.21979841906105,39.78205874483298 24.735954627861716,41.72265019738497" stroke="#0000ff" stroke-linecap="round" stroke-width="1" /><polyline clip-path="url(#border_clip)" fill="none" points="25.58954660484055,45.761024572341206 23.589851214527766,45.79592938521578 23.554946401653197,43.79623399490299 25.554641791965977,43.761329182028426 25.589546604840546,45.761024572341206" stroke="#0000ff" stroke-linecap="round" stroke-width="1" /><polyline clip-path="url(#border_clip)" fill="none" points="27.459261340010215,49.44086881694658 25.536737948133577,49.992143528580584 24.985463236499577,48.069620136703946 26.907986628376214,47.518345425069946 27.459261340010215,49.44086881694658" stroke="#0000ff" stroke-linecap="round" stroke-width="1" /><polyline clip-path="url(#border_clip)" fill="none" points="30.217680864018586,52.511407627161375 28.50334626261436,53.54148377698148 27.473270112794253,51.82714917557726 29.18760471419848,50.79707302575715 30.217680864018586,52.511407627161375" stroke="#0000ff" stroke-linecap="round" stroke-width="1" /><polyline clip-path="url(#border_clip)" fill="none" points="33.676823444808306,54.76338885737476 32.28750670389031,56.202068458052054 30.848827103213004,54.81275171713406 32.238143844131,53.37407211645676 33.676823444808306,54.76338885737476" stroke="#0000ff" stroke-linecap="round" stroke-width="1" /><polyline clip-path="url(#border_clip)" fill="none" points="37.600954232001925,56.043343708322624 36.63133499150925,57.792583122601414 34.88209557723046,56.82296388210874 35.851714817723135,55.07372446782995 37.600954232001925,56.043343708322624" stroke="#0000ff" stroke-linecap="round" stroke-width="1" /><polyline clip-path="url(#border_clip)" fill="none" points="41.722650197384965,56.264045372138284 41.23880640618563,58.204636824690276 39.29821495363363,57.72079303349094 39.78205874483297,55.78020158093895 41.722650197384965,56.264045372138284" stroke="#0000ff" stroke-linecap="round" stroke-width="1" /><polyline clip-path="url(#border_clip)" fill="none" points="45.76102457234121,55.41045339515945 45.795929385215786,57.41014878547223 43.796233994903,57.4450535983468 43.76132918202843,55.445358208034015 45.76102457234121,55.41045339515945" stroke="#0000ff" stroke-linecap="round" stroke-width="1" /><polyline clip-path="url(#border_clip)" fill="none" points="49.44086881694658,53.540738659989785 49.992143528580584,55.46326205186642 48.069620136703946,56.01453676350042 47.518345425069946,54.092013371623786 49.44086881694658,53.540738659989785" stroke="#0000ff" stroke-linecap="round" stroke-width="1" /><polyline clip-path="url(#border_clip)" fill="none" points="52.511407627161375,50.78231913598142 53.54148377698148,52.49665373738564 51.82714917557726,53.52672988720575 50.79707302575715,51.81239528580153 52.511407627161375,50.78231913598142" stroke="#0000ff" stroke-linecap="round" stroke-width="1" /><polyline clip-path="url(#border_clip)" fill="none" points="54.76338885737476,47.3231765551917 56.202068458052054,48.71249329610969 54.81275171713406,50.151172896786996 53.37407211645676,48.761856155869 54.76338885737476,47.323176555191694" stroke="#0000ff" stroke-linecap="round" stroke-width="1" /><polyline clip-path="url(#border_clip)" fill="none" points="56.043343708322624,43.399045767998075 57.792583122601414,44.36866500849075 56.82296388210874,46.11790442276954 55.07372446782995,45.148285182276865 56.043343708322624,43.399045767998075" stroke="#0000ff" stroke-linecap="round" stroke-width="1" /><polyline clip-path="url(#border_clip)" fill="none" points="56.264045372138284,39.277349802615035 58.204636824690276,39.76119359381437 57.72079303349094,41.70178504636637 55.78020158093895,41.21794125516703 56.264045372138284,39.277349802615035" stroke="#0000ff" stroke-linecap="round" stroke-width="1" /><polyline clip-path="url(#border_clip)" fill="none" points="50.4112149193775,35.32623745984521 52.41091030969028,35.291332646970645 52.445815122564845,37.291028037283425 50.446119732252065,37.32593285015799 50.4112149193775,35.32623745984521" stroke="#ff0000" stroke-linecap="round" stroke-width="1" /><polyline clip-path="url(#border_clip)" fill="none" points="47.449986561663,31.742278447409756 49.2626021357363,30.897041923928356 50.107838659217705,32.70965749800166 48.2952230851444,33.55489402148306 47.449986561663,31.74227844740976" stroke="#ff0000" stroke-linecap="round" stroke-width="1" /><polyline clip-path="url(#border_clip)" fill="none" points="43.287042388791214,29.672609052819745 44.599160446772224,28.1631898923742 46.10857960721777,29.475307950355212 44.79646154923675,30.984727110800755 43.287042388791214,29.67260905281974" stroke="#ff0000" stroke-linecap="round" stroke-width="1" /><polyline clip-path="url(#border_clip)" fill="none" points="38.64219326741219,29.47509391675596 39.22693667685766,27.56248440482989 41.13954618878373,28.14722781427536 40.55480277933826,30.059837326201432 38.64219326741219,29.47509391675596" stroke="#ff0000" stroke-linecap="round" stroke-width="1" /><polyline clip-path="url(#border_clip)" fill="none" points="34.318575807741915,31.183885200612515 34.07483712093162,29.19879289732987 36.05992942421427,28.955054210519577 36.303668111024564,30.94014651380222 34.318575807741915,31.183885200612515" stroke="#ff0000" stroke-linecap="round" stroke-width="1" /><polyline clip-path="url(#border_clip)" fill="none" points="31.0637827473889,34.50351736752914 30.033706597568788,32.78918276612492 31.748041198973013,31.75910661630481 32.778117348793124,33.47344121770904 31.0637827473889,34.50351736752914" stroke="#ff0000" stroke-linecap="round" stroke-width="1" /><polyline clip-path="url(#border_clip)" fill="none" points="29.44059737535485,38.85999585793449 27.802293286776866,37.7128429852324 28.94944615947896,36.07453889665442 30.587750248056942,37.22169176935651 29.44059737535485,38.85999585793449" stroke="#ff0000" stroke-linecap="round" stroke-width="1" /><polyline clip-path="url(#border_clip)" fill="none" points="29.729683188640635,43.50004596347287 27.766428821745308,43.11842797271978 28.1480468124984,41.15517360582445 30.111301179393728,41.536791596577544 29.729683188640635,43.50004596347287" stroke="#ff0000" stroke-linecap="round" stroke-width="1" /><polyline clip-path="url(#border_clip)" fill="none" points="31.88105462386697,47.62136086736482 29.9323144942965,48.07126297605255 29.482412385608768,46.122522846482084 31.431152515179242,45.672620737794354 31.881054623866973,47.62136086736482" stroke="#ff0000" stroke-linecap="round" stroke-width="1" /><polyline clip-path="url(#border_clip)" fill="none" points="35.52272001528731,50.51132778175695 33.925448995192724,51.714957828061046 32.721818948888625,50.11768680796646 34.319089968983214,48.91405676166236 35.52272001528731,50.51132778175695" stroke="#ff0000" stroke-linecap="round" stroke-width="1" /><polyline clip-path="url(#border_clip)" fill="none" points="40.0250023332336,51.67024517262564 39.055383092740925,53.41948458690443 37.306143678462135,52.44986534641176 38.27576291895481,50.700625932132965 40.0250023332336,51.67024517262564" stroke="#ff0000" stroke-linecap="round" stroke-width="1" /><polyline clip-path="url(#border_clip)" fill="none" points="44.60941606298215,50.89772569465575 44.435104577486825,52.89011509083924 42.442715181303335,52.71580360534392 42.61702666679865,50.72341420916043 44.60941606298215,50.89772569465575" stroke="#ff0000" stroke-linecap="round" stroke-width="1" /><polyline clip-path="url(#border_clip)" fill="none" points="48.483274422568144,48.32734498370739 49.13441073148246,50.21838213490602 47.24337358028383,50.86951844382033 46.59223727136951,48.9784812926217 48.483274422568144,48.32734498370739" stroke="#ff0000" stroke-linecap="round" stroke-width="1" /><polyline clip-path="url(#border_clip)" fill="none" points="50.97675210872083,44.40354521587922 52.34074882884583,45.86625261911756 50.87804142560749,47.230249339242555 49.51404470548249,45.767541936004214 50.97675210872083,44.40354521587922" stroke="#ff0000" stroke-linecap="round" stroke-width="1" /><polyline clip-path="url(#border_clip)" fill="none" points="51.65870417697077,39.80478701763054 53.49971388387566,40.58624927460909 52.71825162689711,42.427258981513965 50.87724191999222,41.645796724535415 51.65870417697077,39.80478701763054" stroke="#ff0000" stroke-linecap="round" stroke-width="1" /><polyline clip-path="url(#border_clip)" fill="none" points="44.412128748439144,35.43095189846891 46.41182413875193,35.39604708559434 46.4467289516265,37.39574247590713 44.44703356131372,37.43064728878169 44.412128748439144,35.43095189846891" stroke="black" stroke-linecap="round" stroke-width="1" /><polyline clip-path="url(#border_clip)" fill="none" points="39.68193448014273,34.14934894635041 41.07125122106073,32.71066934567311 42.50993082173803,34.0999860865911 41.12061408082003,35.538665687268406 39.68193448014273,34.14934894635041" stroke="black" stroke-linecap="round" stroke-width="1" /><polyline clip-path="url(#border_clip)" fill="none" points="35.43095189846891,36.587871251560856 35.39604708559434,34.58817586124807 37.39574247590713,34.5532710483735 37.43064728878169,36.55296643868628 35.43095189846891,36.587871251560856" stroke="black" stroke-linecap="round" stroke-width="1" /><polyline clip-path="url(#border_clip)" fill="none" points="34.14934894635041,41.318065519857264 32.71066934567311,39.92874877893927 34.0999860865911,38.49006917826197 35.538665687268406,39.87938591917996 34.14934894635041,41.318065519857264" stroke="black" stroke-linecap="round" stroke-width="1" /><polyline clip-path="url(#border_clip)" fill="none" points="36.587871251560856,45.56904810153109 34.58817586124807,45.60395291440565 34.5532710483735,43.60425752409287 36.55296643868628,43.56935271121831 36.587871251560856,45.56904810153109" stroke="black" stroke-linecap="round" stroke-width="1" /><polyline clip-path="url(#border_clip)" fill="none" points="41.318065519857264,46.85065105364959 39.92874877893927,48.289330654326896 38.49006917826197,46.9000139134089 39.87938591917996,45.461334312731594 41.318065519857264,46.85065105364959" stroke="black" stroke-linecap="round" stroke-width="1" /><polyline clip-path="url(#border_clip)" fill="none" points="45.56904810153109,44.412128748439144 45.60395291440565,46.41182413875193 43.60425752409287,46.4467289516265 43.56935271121831,44.44703356131372 45.56904810153109,44.412128748439144" stroke="black" stroke-linecap="round" stroke-width="1" /><polyline clip-path="url(#border_clip)" fill="none" points="46.85065105364959,39.681934480142736 48.28933065432689,41.07125122106073 46.9000139134089,42.50993082173803 45.461334312731594,41.12061408082004 46.85065105364959,39.681934480142736" stroke="black" stroke-linecap="round" stroke-width="1" /></svg>